<?xml version="1.0" encoding="UTF-8"?>
<svg width="32px" height="35px" viewBox="0 0 32 35" version="1.1" xmlns="http://www.w3.org/2000/svg" xmlns:xlink="http://www.w3.org/1999/xlink">
    <!-- Generator: Sketch 63.1 (92452) - https://sketch.com -->
    <title>Icon</title>
    <desc>Created with Sketch.</desc>
    <g id="Symbols" stroke="none" stroke-width="1" fill="none" fill-rule="evenodd">
        <g id="why-different" transform="translate(-736.000000, -285.000000)" fill="#8E96A9">
            <g id="Features-Block">
                <g transform="translate(168.000000, 285.000000)">
                    <g id="Group-2" transform="translate(458.000000, 0.000000)">
                        <path d="M111,26.7597124 C111.553,26.7597124 112,27.2071841 112,27.7607678 L112,27.7607678 L112,33.998344 C112,34.5519276 111.553,34.9993994 111,34.9993994 C110.447,34.9993994 110,34.5519276 110,33.998344 L110,33.998344 L110,27.7607678 C110,27.2071841 110.447,26.7597124 111,26.7597124 Z M116,12.0958525 C116.553,12.0958525 117,12.5433242 117,13.0969079 L117,13.0969079 L117,33.9989446 C117,34.5525282 116.553,35 116,35 C115.447,35 115,34.5525282 115,33.9989446 L115,33.9989446 L115,13.0969079 C115,12.5433242 115.447,12.0958525 116,12.0958525 Z M121,20.5216357 C121.553,20.5216357 122,20.9691074 122,21.5226911 L122,21.5226911 L122,33.9988445 C122,34.5524281 121.553,34.9998999 121,34.9998999 C120.447,34.9998999 120,34.5524281 120,33.9988445 L120,33.9988445 L120,21.5226911 C120,20.9691074 120.447,20.5216357 121,20.5216357 Z M126,0 C126.553,0 127,0.447471763 127,1.0010554 L127,1.0010554 L127,33.9988445 C127,34.5524281 126.553,34.9998999 126,34.9998999 C125.447,34.9998999 125,34.5524281 125,33.9988445 L125,33.9988445 L125,1.0010554 C125,0.447471763 125.447,0 126,0 Z M131,6.33978394 C131.553,6.33978394 132,6.78725571 132,7.34083934 L132,7.34083934 L132,33.9989446 C132,34.5525282 131.553,35 131,35 C130.447,35 130,34.5525282 130,33.9989446 L130,33.9989446 L130,7.34083934 C130,6.78725571 130.447,6.33978394 131,6.33978394 Z M136,0 C136.553,0 137,0.447471763 137,1.0010554 L137,1.0010554 L137,33.9988445 C137,34.5524281 136.553,34.9998999 136,34.9998999 C135.447,34.9998999 135,34.5524281 135,33.9988445 L135,33.9988445 L135,1.0010554 C135,0.447471763 135.447,0 136,0 Z M141,10.7613455 C141.553,10.7613455 142,11.2088173 142,11.7624009 L142,11.7624009 L142,33.9988445 C142,34.5524281 141.553,34.9998999 141,34.9998999 C140.447,34.9998999 140,34.5524281 140,33.9988445 L140,33.9988445 L140,11.7624009 C140,11.2088173 140.447,10.7613455 141,10.7613455 Z" id="Icon"></path>
                    </g>
                </g>
            </g>
        </g>
    </g>
</svg>