<?xml version="1.0" encoding="UTF-8"?>
<svg width="38px" height="42px" viewBox="0 0 38 42" version="1.1" xmlns="http://www.w3.org/2000/svg" xmlns:xlink="http://www.w3.org/1999/xlink">
    <!-- Generator: Sketch 63.1 (92452) - https://sketch.com -->
    <title>Shape</title>
    <desc>Created with Sketch.</desc>
    <g id="Symbols" stroke="none" stroke-width="1" fill="none" fill-rule="evenodd">
        <g id="why-different" transform="translate(-275.000000, -484.000000)" fill="#8E96A9" fill-rule="nonzero">
            <g id="Features-Block">
                <g transform="translate(168.000000, 285.000000)">
                    <g id="Group-5" transform="translate(107.000000, 199.000000)">
                        <g id="atom-solid">
                            <path d="M18.8802712,0 C13.8826751,0 10.0082768,7.39543269 9.31416544,17.6682692 C10.2101999,18.6210942 11.2639847,19.5676078 12.4313537,20.4888826 C12.4439731,19.4161655 12.5070749,18.3939307 12.5954154,17.390625 C13.5356194,16.7406847 14.7156077,15.9456134 15.649502,15.4029443 C19.9466771,12.9230769 24.3700557,11.2887616 28.0993213,10.8028846 C28.8312924,10.7082328 29.5190941,10.6640633 30.1437924,10.6640633 C32.2387444,10.6640633 33.7216174,11.168871 34.2705961,12.1153846 C34.7627828,12.9735577 34.5419307,14.3365385 33.7153077,15.9329924 C34.5608597,16.7154443 35.3622424,17.5105172 36.0752828,18.3118998 C37.8925905,15.3019828 38.2648866,12.5697115 37.0659691,10.5 C35.6398866,8.032752 32.3144655,6.99789623 27.6891654,7.59735577 C23.5434327,8.13371354 18.6972788,9.91316146 14.0341174,12.6075729 C13.7375424,12.7779443 13.4598982,12.967248 13.1696346,13.1502404 C14.3306923,7.17457892 16.6906674,3.23076923 18.8802712,3.23076923 C19.9025076,3.23076923 20.9626037,4.10156331 21.9217384,5.61598638 C23.0196943,5.27524038 24.1050308,4.97866546 25.1588173,4.75781331 C23.4866422,1.76051723 21.3159691,0 18.8802712,0 Z M7.92594428,7.45222315 C4.42384051,7.389123 1.88718267,8.43659815 0.694574897,10.5 C-0.605305718,12.7463942 -0.0626366415,15.762621 2.17113659,19.0754211 C2.37305967,19.3846154 2.59391344,19.7127404 2.87155767,20.0724155 C5.40821551,23.3915268 9.3709559,26.6980172 14.0341174,29.3924287 C14.3306923,29.5628001 14.6398866,29.7142424 14.9427712,29.8846154 C13.0939134,30.5219347 11.3018461,30.9825729 9.65491144,31.1971154 C6.50617305,31.6072712 4.20298836,31.1150845 3.49625759,29.8846154 C2.99775959,29.0264423 3.21861336,27.6634615 4.04523474,26.0670076 C3.19968267,25.2845557 2.39830005,24.4894828 1.6789499,23.6944115 C-0.132048103,26.6980172 -0.50434418,29.4302885 0.694574897,31.5 C1.85563259,33.5129211 4.27870951,34.5730172 7.63568067,34.5730172 C8.3992019,34.5730172 9.21951359,34.5162268 10.071377,34.4026442 C10.5635653,34.3395441 11.055752,34.2575116 11.5605597,34.1565501 L11.9139251,34.0808289 C11.9391654,34.0808289 11.9580961,34.0745192 11.9833365,34.0682095 C12.8415096,33.8852172 13.7880232,33.6328133 14.8733597,33.2920673 L15.9397672,32.9639423 C17.5236001,32.4212748 19.1452961,31.7460942 20.7669904,30.9573325 C21.1203557,29.7836538 21.4358597,28.4143634 21.6756442,26.8368385 C20.74175,27.3605769 19.8015461,27.8338345 18.8676518,28.2755405 C17.788625,27.7707328 16.7032884,27.2091346 15.649502,26.5970557 C11.3460172,24.110877 7.71771151,21.1009615 5.4397672,18.1162865 C3.50887697,15.5859383 2.78321551,13.3458538 3.49625759,12.1153846 C3.98213459,11.2698325 5.2693942,10.7902652 7.04253082,10.7019231 C7.29493467,9.55979608 7.5851999,8.47445954 7.92594428,7.45222315 Z M26.5407287,14.3743998 C25.2660885,14.6709732 23.9157287,15.106371 22.5338173,15.6553482 C23.4487808,16.1980172 24.3195749,16.7785461 25.165127,17.3590749 C25.2660885,18.532752 25.3418097,19.7316711 25.3418097,21 C25.3418097,30.528246 22.3445136,37.7974768 19.4608001,38.6745789 C19.2651867,38.7376807 19.0632636,38.7692308 18.8802712,38.7692308 C17.8580364,38.7692308 16.7979403,37.904748 15.8388057,36.3777039 C14.7408481,36.7247596 13.6555116,37.0213345 12.6017251,37.2421883 C14.2739018,40.2394828 16.4445749,42 18.8802712,42 C19.2020865,42 19.5112808,41.9684499 19.8141654,41.9053482 C24.8685521,40.9462135 28.5725789,32.2887616 28.5725789,21 C28.5725789,20.6529443 28.5473385,20.3185096 28.5410288,19.9714539 C30.0175905,21.2524038 31.3174711,22.5712135 32.3270865,23.8837135 C34.2516654,26.4140633 34.9773269,28.6541462 34.2705961,29.8846154 C33.7720981,30.7364788 32.5037692,31.2286655 30.7180116,31.3170076 C30.4656077,32.4465152 30.1816538,33.5381615 29.8409078,34.5540865 C29.92925,34.5540865 30.0365212,34.5730172 30.1248634,34.5730172 C33.4818345,34.5730172 35.9049114,33.5129211 37.0659691,31.5 C38.4920501,29.032752 37.7222191,25.6316114 34.8889847,21.9275845 C32.882375,19.3025845 29.9734211,16.6902039 26.5407287,14.3743998 Z M18.8802712,17.7692308 C17.0945136,17.7692308 15.649502,19.2142424 15.649502,21 C15.649502,22.7857576 17.0945136,24.2307692 18.8802712,24.2307692 C20.6660288,24.2307692 22.1110404,22.7857576 22.1110404,21 C22.1110404,19.2142424 20.6660288,17.7692308 18.8802712,17.7692308 Z" id="Shape"></path>
                        </g>
                    </g>
                </g>
            </g>
        </g>
    </g>
</svg>