<?xml version="1.0" encoding="UTF-8"?>
<svg width="36px" height="36px" viewBox="0 0 36 36" version="1.1" xmlns="http://www.w3.org/2000/svg" xmlns:xlink="http://www.w3.org/1999/xlink">
    <!-- Generator: Sketch 63.1 (92452) - https://sketch.com -->
    <title>Icon</title>
    <desc>Created with Sketch.</desc>
    <g id="Symbols" stroke="none" stroke-width="1" fill="none" fill-rule="evenodd">
        <g id="why-different" transform="translate(-1142.000000, -487.000000)" fill="#8E96A9">
            <g id="Features-Block">
                <g transform="translate(168.000000, 285.000000)">
                    <g id="Group-5" transform="translate(107.000000, 199.000000)">
                        <path d="M893.667529,29.5976471 C894.455294,27.2036471 894.916941,24.6614118 895.026,22.0588235 L900.828353,22.0588235 C900.590118,25.6535294 899.156471,28.9189412 896.913882,31.4685882 C895.879412,30.7432941 894.796235,30.1164706 893.667529,29.5976471 L893.667529,29.5976471 Z M892.921059,31.5892941 C893.773412,31.9895294 894.599294,32.4511765 895.391294,32.9827059 C893.997882,34.1929412 892.393765,35.1596471 890.640353,35.8288235 C891.526588,34.5116471 892.288941,33.0917647 892.921059,31.5892941 L892.921059,31.5892941 Z M877.318235,31.4717647 C877.981059,33.0705882 878.788941,34.5783529 879.739765,35.9685882 C877.837059,35.2972941 876.101647,34.2797647 874.607647,32.9827059 C875.474824,32.4014118 876.380118,31.8963529 877.318235,31.4717647 L877.318235,31.4717647 Z M877.221882,10.4774118 C876.319765,10.0634118 875.447294,9.57529412 874.611882,9.01411765 C876.047647,7.76788235 877.708941,6.78105882 879.524824,6.11082353 C878.618471,7.47247059 877.849765,8.93364706 877.221882,10.4774118 L877.221882,10.4774118 Z M893.019529,10.362 C892.421294,8.91247059 891.698118,7.53811765 890.853176,6.24952941 C892.522941,6.91447059 894.050824,7.85364706 895.387059,9.01305882 C894.625765,9.52235294 893.835882,9.97341176 893.019529,10.362 L893.019529,10.362 Z M886.039765,19.9411765 L886.039765,14.2531765 C888.009176,14.1568235 889.930941,13.7947059 891.762706,13.1657647 C892.439294,15.3225882 892.834235,17.6075294 892.918941,19.9411765 L886.039765,19.9411765 Z M886.039765,22.0588235 L892.908353,22.0588235 C892.803529,24.3882353 892.393765,26.6604706 891.702353,28.8035294 C889.890706,28.1883529 887.990118,27.8431765 886.039765,27.7478824 L886.039765,22.0588235 Z M883.922118,22.0588235 L883.922118,27.75 C882.078706,27.8421176 880.280824,28.1671765 878.561294,28.7251765 C877.884706,26.6054118 877.483412,24.3607059 877.379647,22.0588235 L883.922118,22.0588235 Z M883.922118,19.9411765 L877.369059,19.9411765 C877.452706,17.6414118 877.837059,15.3892941 878.496706,13.26 C880.237412,13.8307059 882.057529,14.1568235 883.922118,14.2510588 L883.922118,19.9411765 Z M900.828353,19.9411765 L895.037647,19.9411765 C894.952941,17.3036471 894.515647,14.754 893.749059,12.3578824 C894.848118,11.8464706 895.905882,11.2387059 896.914941,10.5335294 C899.156471,13.0821176 900.590118,16.3475294 900.828353,19.9411765 L900.828353,19.9411765 Z M887.553882,5.34317647 C888.989647,7.04470588 890.158588,9.02258824 891.043765,11.1741176 C889.439647,11.7215294 887.761412,12.0412941 886.039765,12.1355294 L886.039765,5.17058824 C886.552235,5.20341176 887.056235,5.26164706 887.553882,5.34317647 L887.553882,5.34317647 Z M883.922118,5.17270588 L883.922118,12.1334118 C882.303176,12.0423529 880.723412,11.7543529 879.209294,11.262 C880.107176,9.05541176 881.300471,7.02776471 882.773294,5.29235294 C883.152353,5.23941176 883.534588,5.19811765 883.922118,5.17270588 L883.922118,5.17270588 Z M873.086118,10.5324706 C874.171412,11.2927059 875.311765,11.9449412 876.501882,12.4785882 C875.759647,14.8397647 875.334,17.3481176 875.250353,19.9411765 L869.170588,19.9411765 C869.409882,16.3464706 870.843529,13.0810588 873.086118,10.5324706 L873.086118,10.5324706 Z M869.170588,22.0588235 L875.263059,22.0588235 C875.368941,24.618 875.818941,27.1168235 876.582353,29.4758824 C875.362588,30.0158824 874.197882,30.6892941 873.086118,31.4685882 C870.843529,28.9189412 869.409882,25.6535294 869.170588,22.0588235 L869.170588,22.0588235 Z M882.997765,36.7425882 C881.465647,35.0008235 880.226824,32.9530588 879.291882,30.7157647 C880.780588,30.2403529 882.330706,29.9565882 883.922118,29.8676471 L883.922118,36.8283529 C883.611882,36.8071765 883.303765,36.7807059 882.997765,36.7425882 L882.997765,36.7425882 Z M886.039765,36.8294118 L886.039765,29.8655294 C887.733882,29.9576471 889.386706,30.2625882 890.964353,30.7930588 C890.042118,32.9784706 888.826588,34.9807059 887.331529,36.6917647 C886.905882,36.7552941 886.476,36.8018824 886.039765,36.8294118 L886.039765,36.8294118 Z M897.984353,33.4454118 C901.084588,30.2117647 903,25.8335294 903,21 C903,12.1556471 896.616353,4.818 888.209294,3.30176471 C888.199765,3.30070588 888.191294,3.29858824 888.181765,3.29752941 C887.147294,3.11329412 886.087412,3 885,3 C875.058706,3 867,11.0587059 867,21 C867,25.8515294 868.928118,30.2467059 872.049529,33.4835294 C872.061176,33.5004706 872.063294,33.5205882 872.076,33.5375294 C872.105647,33.5756471 872.148,33.5957647 872.181882,33.6285882 C875.446235,36.9416471 879.981176,39 885,39 C889.996588,39 894.515647,36.9617647 897.777882,33.6730588 C897.828706,33.6285882 897.891176,33.6021176 897.934588,33.546 C897.958941,33.5152941 897.964235,33.4782353 897.984353,33.4454118 L897.984353,33.4454118 Z" id="Icon"></path>
                    </g>
                </g>
            </g>
        </g>
    </g>
</svg>