<?xml version="1.0" encoding="UTF-8"?>
<svg width="39px" height="29px" viewBox="0 0 39 29" version="1.1" xmlns="http://www.w3.org/2000/svg" xmlns:xlink="http://www.w3.org/1999/xlink">
    <!-- Generator: Sketch 63.1 (92452) - https://sketch.com -->
    <title>Icon</title>
    <desc>Created with Sketch.</desc>
    <g id="Symbols" stroke="none" stroke-width="1" fill="none" fill-rule="evenodd">
        <g id="why-different" transform="translate(-1139.000000, -288.000000)" fill="#8E96A9">
            <g id="Features-Block">
                <g transform="translate(168.000000, 285.000000)">
                    <g id="Group-4" transform="translate(865.000000, 3.000000)">
                        <path d="M143,22.4533508 L139,22.4533508 C138.447,22.4533508 138,22.8993051 138,23.4510114 L138,26.1846016 L132.373,22.6089858 C132.213,22.5082221 132.026,22.4533508 131.836,22.4533508 L124.125,22.4533508 L124.125,17.4650475 L129.875,17.4650475 C130.428,17.4650475 130.875,17.0190932 130.875,16.4673868 L130.875,9.97660658 L143,9.97660658 L143,22.4533508 Z M119.164,15.4697262 C118.974,15.4697262 118.787,15.5245975 118.627,15.6253612 L113,19.200977 L113,16.4673868 C113,15.9156805 112.553,15.4697262 112,15.4697262 L108,15.4697262 L108,1.99532132 L128.875,1.99532132 L128.875,15.4697262 L119.164,15.4697262 Z M144,7.98128526 L130.875,7.98128526 L130.875,0.997660658 C130.875,0.445954314 130.428,0 129.875,0 L107,0 C106.447,0 106,0.445954314 106,0.997660658 L106,16.4673868 C106,17.0190932 106.447,17.4650475 107,17.4650475 L111,17.4650475 L111,21.0197124 C111,21.3838585 111.199,21.7190725 111.519,21.8936631 C111.669,21.9754713 111.835,22.0173731 112,22.0173731 C112.188,22.0173731 112.374,21.964497 112.537,21.8607403 L119.455,17.4650475 L122.125,17.4650475 L122.125,23.4510114 C122.125,24.0027178 122.572,24.4486721 123.125,24.4486721 L131.545,24.4486721 L138.463,28.8443649 C138.626,28.9481216 138.813,29 139,29 C139.165,29 139.331,28.9590959 139.481,28.8772877 C139.801,28.7026971 140,28.3674831 140,28.0023393 L140,24.4486721 L144,24.4486721 C144.553,24.4486721 145,24.0027178 145,23.4510114 L145,8.97894592 C145,8.42723958 144.553,7.98128526 144,7.98128526 L144,7.98128526 Z" id="Icon"></path>
                    </g>
                </g>
            </g>
        </g>
    </g>
</svg>