<?xml version="1.0" encoding="UTF-8"?>
<svg width="38px" height="34px" viewBox="0 0 38 34" version="1.1" xmlns="http://www.w3.org/2000/svg" xmlns:xlink="http://www.w3.org/1999/xlink">
    <!-- Generator: Sketch 63.1 (92452) - https://sketch.com -->
    <title>Icon</title>
    <desc>Created with Sketch.</desc>
    <g id="Symbols" stroke="none" stroke-width="1" fill="none" fill-rule="evenodd">
        <g id="why-different" transform="translate(-275.000000, -286.000000)" fill="#8E96A9">
            <g id="Features-Block">
                <g transform="translate(168.000000, 285.000000)">
                    <g id="Group" transform="translate(0.000000, 1.000000)">
                        <path d="M134.5,0 C135.605,0 136.5,0.895 136.5,2 L136.5,2 L136.5,7 L143,7 C144.054773,7 144.918202,7.81548554 144.994517,8.85068417 L145,9 L145,27 C145,28.105 144.105,29 143,29 L143,29 L136.5,29 L136.5,32 C136.5,33.0547727 135.684514,33.9182025 134.649316,33.9945168 L134.5,34 L116.5,34 C115.395,34 114.5,33.105 114.5,32 L114.5,32 L114.5,22 L109,22.0001 C107.945227,22.0001 107.081798,21.1846145 107.005483,20.1494158 L107,20.0001 L107,9.0001 C107,7.8951 107.895,7.0001 109,7.0001 L109,7.0001 L114.5,7 L114.5,2 C114.5,0.945227273 115.315486,0.0817975207 116.350684,0.00548318933 L116.5,0 Z M134.5,2 L116.5,2 L116.5,7 L120,7.0001 C121.054773,7.0001 121.918202,7.81558554 121.994517,8.85078417 L122,9.0001 L122,20.0001 C122,21.1051 121.105,22.0001 120,22.0001 L120,22.0001 L116.5,22 L116.5,32 L134.5,32 L134.5,2 Z M143,9 L136.5,9 L136.5,27 L143,27 L143,9 Z M120,9.0001 L109,9.0001 L109,20.0001 L120,20.0001 L120,9.0001 Z" id="Icon"></path>
                    </g>
                </g>
            </g>
        </g>
    </g>
</svg>